<?xml version="1.0" encoding="utf-8"?>
<!-- Generator: Adobe Illustrator 24.0.0, SVG Export Plug-In . SVG Version: 6.00 Build 0)  -->
<svg version="1.1" id="Layer_1" xmlns="http://www.w3.org/2000/svg" xmlns:xlink="http://www.w3.org/1999/xlink" x="0px" y="0px"
	 viewBox="0 0 612 792" style="enable-background:new 0 0 612 792;" xml:space="preserve">
<style type="text/css">
	.st0{fill:#FFD215;}
	.st1{filter:url(#Adobe_OpacityMaskFilter);}
	.st2{opacity:0.3;mask:url(#SVGID_1_);}
	.st3{fill:#605123;}
</style>
<g>
	<g>
		<path class="st0" d="M237.9,146.7c-14.2-11.6-31.3-17.1-48.2-16.9c4.9,2.3,9.5,5.2,13.9,8.8c28.8,23.5,33,65.9,9.5,94.7
			c-20.2,24.7-54.2,31.3-81.6,17.8c3.3,4.2,7.2,8.2,11.5,11.8c32.1,26.2,79.3,21.5,105.5-10.6C274.6,220.2,269.9,172.9,237.9,146.7z
			"/>
	</g>
	<defs>
		<filter id="Adobe_OpacityMaskFilter" filterUnits="userSpaceOnUse" x="131.3" y="129.8" width="134" height="150">
			
				<feColorMatrix  type="matrix" values="-1 0 0 0 1  0 -1 0 0 1  0 0 -1 0 1  0 0 0 1 0" color-interpolation-filters="sRGB" result="source"/>
		</filter>
	</defs>
	<mask maskUnits="userSpaceOnUse" x="131.3" y="129.8" width="134" height="150" id="SVGID_1_">
		<g class="st1">
			
				<image style="overflow:visible;" width="577" height="643" xlink:href="C369D73321D906E8.jpg"  transform="matrix(0.24 0 0 0.24 129.12 127.68)">
			</image>
		</g>
	</mask>
	<g class="st2">
		<path class="st3" d="M237.9,146.7c-14.2-11.6-31.3-17.1-48.2-16.9c4.9,2.3,9.5,5.2,13.9,8.8c28.8,23.5,33,65.9,9.5,94.7
			c-20.2,24.7-54.2,31.3-81.6,17.8c3.3,4.2,7.2,8.2,11.5,11.8c32.1,26.2,79.3,21.5,105.5-10.6C274.6,220.2,269.9,172.9,237.9,146.7z
			"/>
	</g>
</g>
</svg>
